<?xml version="1.0" encoding="UTF-8"?> <svg xmlns="http://www.w3.org/2000/svg" viewBox="1950 2450 100 100" width="100" height="100"><path fill="#21b5e9" stroke="none" fill-opacity="1" stroke-width="1" stroke-opacity="1" color="rgb(51, 51, 51)" fill-rule="evenodd" id="tSvge0747b75a3" d="M 2016.5 2474.13 C 2017.5 2469.56 2018.5 2464.99 2019.5 2460.42 C 2019.7532266432852 2459.2934079707084 2018.691921649156 2458.315162069223 2017.5896510104456 2458.6591573778687 C 2017.466677488398 2458.697534808226 2017.3491600571895 2458.7515938877 2017.24 2458.82 C 2017.24 2458.82 2014.13 2460.71 2008 2460.71 C 2005.22 2460.71 2003.53 2459.46 2001.58 2458.01 C 1999.37 2456.36 1996.86 2454.5 1992.58 2454.5 C 1984.42 2454.5 1981.72 2459.17 1981.58 2459.37 C 1981.4037954535415 2459.6900527597336 1981.3504584080633 2460.0634120776613 1981.43 2460.42 C 1982.43 2464.99 1983.43 2469.56 1984.43 2474.13 C 1980.41 2479.28 1953 2514.94 1966 2531.06 C 1976 2543.5 1991.19 2543.49 2000.2 2543.5 C 2000.5066666666667 2543.5 2000.8133333333333 2543.5 2001.12 2543.5 C 2010.2 2543.5 2025.12 2543.36 2035.02 2531.06C 2048 2514.94 2020.59 2479.28 2016.5 2474.13Z M 2032.69 2529.13 C 2023.69 2540.32 2009.69 2540.45 2001.11 2540.45 C 2000.8066666666666 2540.45 2000.5033333333333 2540.45 2000.2 2540.45 C 1991.69 2540.45 1977.44 2540.45 1968.32 2529.13 C 1962.07 2521.42 1967.42 2507.37 1973 2497 C 1977.1460110546489 2489.4485468690023 1981.915948562379 2482.256845883028 1987.26 2475.5 C 1987.5485514112684 2475.1446218645488 1987.659029188434 2474.676932607828 1987.56 2474.23 C 1986.56 2469.6466666666665 1985.56 2465.0633333333335 1984.56 2460.48 C 1985.32 2459.6 1987.62 2457.55 1992.56 2457.55 C 1995.84 2457.55 1997.75 2458.97 1999.77 2460.47 C 2001.79 2461.97 2004.2 2463.76 2007.98 2463.76 C 2010.6880859315004 2463.795337122206 2013.3857344970577 2463.417666139703 2015.98 2462.64 C 2015.1266666666666 2466.5066666666667 2014.2733333333333 2470.3733333333334 2013.42 2474.24 C 2013.320970811566 2474.6869326078277 2013.4314485887317 2475.154621864549 2013.72 2475.51 C 2019.0674350900856 2482.2368978946974 2023.844018813543 2489.398428508205 2028 2496.92 C 2033.57 2507.35 2038.94 2521.41 2032.69 2529.18C 2032.69 2529.1633333333334 2032.69 2529.1466666666665 2032.69 2529.13Z"></path><path fill="#21b5e9" stroke="none" fill-opacity="1" stroke-width="1" stroke-opacity="1" color="rgb(51, 51, 51)" fill-rule="evenodd" id="tSvg126172bc484" d="M 2008.5 2503.5 C 2008.5 2504.654700538379 2009.75 2505.376388374866 2010.75 2504.7990381056766 C 2011.2141016151377 2504.5310889132456 2011.5 2504.0358983848623 2011.5 2503.5 C 2011.5 2498.97 2007.58 2495.23 2002.5 2494.6 C 2002.5 2493.9 2002.5 2493.2 2002.5 2492.5 C 2002.5 2491.345299461621 2001.25 2490.623611625134 2000.25 2491.2009618943234 C 1999.7858983848623 2491.4689110867544 1999.5 2491.9641016151377 1999.5 2492.5 C 1999.5 2493.2 1999.5 2493.9 1999.5 2494.6 C 1994.42 2495.23 1990.5 2498.97 1990.5 2503.5 C 1990.5 2508.03 1994.42 2511.76 1999.5 2512.39 C 1999.5 2516.39 1999.5 2520.39 1999.5 2524.39 C 1996.08 2523.83 1993.5 2521.39 1993.5 2518.51 C 1993.5 2517.3552994616207 1992.25 2516.6336116251337 1991.25 2517.210961894323 C 1990.7858983848623 2517.4789110867546 1990.5 2517.974101615138 1990.5 2518.51 C 1990.5 2523.04 1994.42 2526.79 1999.5 2527.41 C 1999.5 2528.11 1999.5 2528.81 1999.5 2529.51 C 1999.5 2530.6647005383793 2000.75 2531.3863883748663 2001.75 2530.809038105677 C 2002.2141016151377 2530.5410889132454 2002.5 2530.045898384862 2002.5 2529.51 C 2002.5 2528.806666666667 2002.5 2528.1033333333335 2002.5 2527.4 C 2007.58 2526.77 2011.5 2523.02 2011.5 2518.5 C 2011.5 2513.98 2007.58 2510.23 2002.5 2509.61 C 2002.5 2505.61 2002.5 2501.61 2002.5 2497.61C 2005.92 2498.18 2008.5 2500.6 2008.5 2503.5Z M 1993.5 2503.5 C 1993.5 2500.6 1996.08 2498.18 1999.5 2497.62 C 1999.5 2501.54 1999.5 2505.46 1999.5 2509.38C 1996.08 2508.82 1993.5 2506.4 1993.5 2503.5Z M 2008.5 2518.5 C 2008.5 2521.4 2005.92 2523.83 2002.5 2524.38 C 2002.5 2520.46 2002.5 2516.54 2002.5 2512.62C 2005.92 2513.18 2008.5 2515.6 2008.5 2518.5Z M 1991.58 2476.44 C 1994.4920837752143 2477.1931363638373 1997.4925131362163 2477.5496896424593 2000.5 2477.5 C 2003.5074868637837 2477.5496896424593 2006.5079162247857 2477.1931363638373 2009.42 2476.44 C 2010.5285125179987 2476.1166838532126 2010.8713328476344 2474.714611259754 2010.0370765920636 2473.9162693321477 C 2009.649896912266 2473.5457575501437 2009.0944624539081 2473.409948446956 2008.58 2473.56 C 2005.9399846973706 2474.2287198709782 2003.2230240247825 2474.544802058157 2000.5 2474.5 C 1997.7769759752175 2474.544802058157 1995.0600153026294 2474.2287198709782 1992.42 2473.56 C 1991.3114874820012 2473.236683853213 1990.2686671641384 2474.2346112631876 1990.5429234265664 2475.356269337581C 1990.670206199557 2475.876832655962 1991.0655375571162 2476.2899484501713 1991.58 2476.44Z"></path><defs> </defs></svg> 