<?xml version="1.0" encoding="UTF-8"?> <svg xmlns="http://www.w3.org/2000/svg" viewBox="0 0 100 100" fill-rule="evenodd"><path d="M84.5 15h-68a1.5 1.5 0 0 0-1.5 1.5v68a1.5 1.5 0 0 0 1.5 1.5h68a1.5 1.5 0 0 0 1.5-1.5v-68a1.5 1.5 0 0 0-1.5-1.5ZM36 18h29v12H36Zm47 65H18V18h15v13.5a1.5 1.5 0 0 0 1.5 1.5h32a1.5 1.5 0 0 0 1.5-1.5V18h15Z" fill="#21b5e9"></path><path d="M56.5 68h-7.59a1.48 1.48 0 0 0 .09-.5V48l2.49 2.49a1.5 1.5 0 0 0 2.12-2.12L49 43.75a1.5 1.5 0 0 0-2.12 0l-4.68 4.64a1.5 1.5 0 0 0 2.12 2.12L46 48.83V67.5a1.48 1.48 0 0 0 .09.5H32.91a1.48 1.48 0 0 0 .09-.5V48.08l2.43 2.43a1.5 1.5 0 0 0 2.12-2.12l-4.65-4.65a1.5 1.5 0 0 0-2.12 0l-4.65 4.65a1.5 1.5 0 0 0 2.12 2.12L30 48.77V67.5a1.48 1.48 0 0 0 .09.5H25.5a1.5 1.5 0 0 0 0 3h31a1.5 1.5 0 0 0 0-3Z" fill="#21b5e9"></path></svg> 